<mxfile host="app.diagrams.net" modified="2024-03-05T05:54:46.828Z" agent="Mozilla/5.0 (Windows NT 10.0; Win64; x64) AppleWebKit/537.36 (KHTML, like Gecko) Chrome/122.0.0.0 Safari/537.36" etag="swvb3Gp3uTk8LLbYZLtA" version="23.1.5" type="github">
  <diagram name="第 1 页" id="jgk6TLI41gFWQYQwitnz">
    <mxGraphModel dx="1082" dy="1022" grid="1" gridSize="10" guides="1" tooltips="1" connect="1" arrows="1" fold="1" page="1" pageScale="1" pageWidth="827" pageHeight="1169" math="0" shadow="0">
      <root>
        <mxCell id="0" />
        <mxCell id="1" parent="0" />
        <mxCell id="wMJG4W6XiPVDL9AXUNTD-142" value="" style="rounded=0;whiteSpace=wrap;html=1;" parent="1" vertex="1">
          <mxGeometry x="847" y="440" width="750" height="330" as="geometry" />
        </mxCell>
        <mxCell id="wMJG4W6XiPVDL9AXUNTD-46" value="" style="rounded=0;whiteSpace=wrap;html=1;" parent="1" vertex="1">
          <mxGeometry x="835" y="10" width="780" height="340" as="geometry" />
        </mxCell>
        <mxCell id="wMJG4W6XiPVDL9AXUNTD-97" value="" style="rounded=1;whiteSpace=wrap;html=1;dashed=1;dashPattern=8 8;strokeColor=#e40707;" parent="1" vertex="1">
          <mxGeometry x="853" y="137" width="744" height="86" as="geometry" />
        </mxCell>
        <mxCell id="wMJG4W6XiPVDL9AXUNTD-47" value="&lt;font style=&quot;font-size: 16px;&quot;&gt;图商提供高精点云pcd地图&lt;/font&gt;" style="rounded=0;whiteSpace=wrap;html=1;strokeColor=#97D077;" parent="1" vertex="1">
          <mxGeometry x="865" y="54" width="170" height="60" as="geometry" />
        </mxCell>
        <mxCell id="wMJG4W6XiPVDL9AXUNTD-54" style="edgeStyle=orthogonalEdgeStyle;rounded=0;orthogonalLoop=1;jettySize=auto;html=1;exitX=1;exitY=0.5;exitDx=0;exitDy=0;entryX=0;entryY=0.5;entryDx=0;entryDy=0;" parent="1" source="wMJG4W6XiPVDL9AXUNTD-49" target="wMJG4W6XiPVDL9AXUNTD-51" edge="1">
          <mxGeometry relative="1" as="geometry" />
        </mxCell>
        <mxCell id="wMJG4W6XiPVDL9AXUNTD-49" value="实时点云采集" style="rounded=0;whiteSpace=wrap;html=1;" parent="1" vertex="1">
          <mxGeometry x="875" y="234" width="120" height="40" as="geometry" />
        </mxCell>
        <mxCell id="wMJG4W6XiPVDL9AXUNTD-50" value="当前帧点云（新点）" style="rounded=0;whiteSpace=wrap;html=1;" parent="1" vertex="1">
          <mxGeometry x="1330" y="234" width="120" height="40" as="geometry" />
        </mxCell>
        <mxCell id="wMJG4W6XiPVDL9AXUNTD-57" style="edgeStyle=orthogonalEdgeStyle;rounded=0;orthogonalLoop=1;jettySize=auto;html=1;exitX=1;exitY=0.5;exitDx=0;exitDy=0;entryX=0;entryY=0.5;entryDx=0;entryDy=0;" parent="1" source="wMJG4W6XiPVDL9AXUNTD-51" target="wMJG4W6XiPVDL9AXUNTD-50" edge="1">
          <mxGeometry relative="1" as="geometry" />
        </mxCell>
        <mxCell id="wMJG4W6XiPVDL9AXUNTD-83" style="edgeStyle=orthogonalEdgeStyle;rounded=0;orthogonalLoop=1;jettySize=auto;html=1;entryX=0.5;entryY=1;entryDx=0;entryDy=0;" parent="1" source="wMJG4W6XiPVDL9AXUNTD-51" target="wMJG4W6XiPVDL9AXUNTD-69" edge="1">
          <mxGeometry relative="1" as="geometry">
            <mxPoint x="1285" y="224" as="targetPoint" />
          </mxGeometry>
        </mxCell>
        <mxCell id="wMJG4W6XiPVDL9AXUNTD-104" value="" style="edgeStyle=orthogonalEdgeStyle;rounded=0;orthogonalLoop=1;jettySize=auto;html=1;" parent="1" source="wMJG4W6XiPVDL9AXUNTD-51" target="wMJG4W6XiPVDL9AXUNTD-103" edge="1">
          <mxGeometry relative="1" as="geometry" />
        </mxCell>
        <mxCell id="wMJG4W6XiPVDL9AXUNTD-51" value="激光点云匹配" style="rounded=0;whiteSpace=wrap;html=1;" parent="1" vertex="1">
          <mxGeometry x="1089" y="234" width="116" height="40" as="geometry" />
        </mxCell>
        <mxCell id="wMJG4W6XiPVDL9AXUNTD-60" value="" style="endArrow=classic;html=1;rounded=0;exitX=1;exitY=0.5;exitDx=0;exitDy=0;" parent="1" source="wMJG4W6XiPVDL9AXUNTD-47" target="wMJG4W6XiPVDL9AXUNTD-61" edge="1">
          <mxGeometry width="50" height="50" relative="1" as="geometry">
            <mxPoint x="1110" y="14" as="sourcePoint" />
            <mxPoint x="1150" y="-56" as="targetPoint" />
          </mxGeometry>
        </mxCell>
        <mxCell id="wMJG4W6XiPVDL9AXUNTD-76" value="" style="edgeStyle=orthogonalEdgeStyle;rounded=0;orthogonalLoop=1;jettySize=auto;html=1;exitX=0;exitY=1;exitDx=0;exitDy=0;" parent="1" source="wMJG4W6XiPVDL9AXUNTD-78" target="wMJG4W6XiPVDL9AXUNTD-51" edge="1">
          <mxGeometry relative="1" as="geometry">
            <Array as="points">
              <mxPoint x="1344" y="114" />
              <mxPoint x="1147" y="114" />
            </Array>
          </mxGeometry>
        </mxCell>
        <mxCell id="wMJG4W6XiPVDL9AXUNTD-61" value="体素地图（旧点）" style="rounded=0;whiteSpace=wrap;html=1;" parent="1" vertex="1">
          <mxGeometry x="1097" y="65" width="100" height="38" as="geometry" />
        </mxCell>
        <mxCell id="wMJG4W6XiPVDL9AXUNTD-66" value="加载" style="text;html=1;align=center;verticalAlign=middle;resizable=0;points=[];autosize=1;strokeColor=none;fillColor=none;" parent="1" vertex="1">
          <mxGeometry x="1035" y="52" width="50" height="30" as="geometry" />
        </mxCell>
        <mxCell id="wMJG4W6XiPVDL9AXUNTD-72" style="edgeStyle=orthogonalEdgeStyle;rounded=0;orthogonalLoop=1;jettySize=auto;html=1;exitX=1;exitY=0.5;exitDx=0;exitDy=0;entryX=0;entryY=0.5;entryDx=0;entryDy=0;" parent="1" source="wMJG4W6XiPVDL9AXUNTD-67" target="wMJG4W6XiPVDL9AXUNTD-69" edge="1">
          <mxGeometry relative="1" as="geometry" />
        </mxCell>
        <mxCell id="wMJG4W6XiPVDL9AXUNTD-67" value="GPS信号" style="rounded=0;whiteSpace=wrap;html=1;" parent="1" vertex="1">
          <mxGeometry x="880" y="165" width="120" height="30" as="geometry" />
        </mxCell>
        <mxCell id="wMJG4W6XiPVDL9AXUNTD-68" value="" style="endArrow=classic;html=1;rounded=0;exitX=0.5;exitY=0;exitDx=0;exitDy=0;entryX=0.5;entryY=1;entryDx=0;entryDy=0;" parent="1" source="wMJG4W6XiPVDL9AXUNTD-50" target="wMJG4W6XiPVDL9AXUNTD-78" edge="1">
          <mxGeometry width="50" height="50" relative="1" as="geometry">
            <mxPoint x="1095" y="184" as="sourcePoint" />
            <mxPoint x="1345" y="184" as="targetPoint" />
          </mxGeometry>
        </mxCell>
        <mxCell id="wMJG4W6XiPVDL9AXUNTD-87" style="edgeStyle=orthogonalEdgeStyle;rounded=0;orthogonalLoop=1;jettySize=auto;html=1;" parent="1" source="wMJG4W6XiPVDL9AXUNTD-69" target="wMJG4W6XiPVDL9AXUNTD-88" edge="1">
          <mxGeometry relative="1" as="geometry">
            <mxPoint x="1475" y="180" as="targetPoint" />
          </mxGeometry>
        </mxCell>
        <mxCell id="wMJG4W6XiPVDL9AXUNTD-69" value="激光匹配结果是否收敛&lt;br&gt;或GPS信号对比结果" style="rhombus;whiteSpace=wrap;html=1;" parent="1" vertex="1">
          <mxGeometry x="1215" y="134" width="170" height="92" as="geometry" />
        </mxCell>
        <mxCell id="wMJG4W6XiPVDL9AXUNTD-79" value="" style="endArrow=classic;html=1;rounded=0;entryX=0;entryY=0.5;entryDx=0;entryDy=0;exitX=1;exitY=0.5;exitDx=0;exitDy=0;" parent="1" source="wMJG4W6XiPVDL9AXUNTD-61" target="wMJG4W6XiPVDL9AXUNTD-78" edge="1">
          <mxGeometry width="50" height="50" relative="1" as="geometry">
            <mxPoint x="1199" y="84" as="sourcePoint" />
            <mxPoint x="1405" y="84" as="targetPoint" />
          </mxGeometry>
        </mxCell>
        <mxCell id="wMJG4W6XiPVDL9AXUNTD-90" style="edgeStyle=orthogonalEdgeStyle;rounded=0;orthogonalLoop=1;jettySize=auto;html=1;entryX=0.5;entryY=0;entryDx=0;entryDy=0;" parent="1" source="wMJG4W6XiPVDL9AXUNTD-78" target="wMJG4W6XiPVDL9AXUNTD-88" edge="1">
          <mxGeometry relative="1" as="geometry" />
        </mxCell>
        <mxCell id="wMJG4W6XiPVDL9AXUNTD-78" value="新旧点融合的体素地图" style="ellipse;whiteSpace=wrap;html=1;" parent="1" vertex="1">
          <mxGeometry x="1325" y="44" width="130" height="80" as="geometry" />
        </mxCell>
        <mxCell id="wMJG4W6XiPVDL9AXUNTD-92" value="" style="edgeStyle=orthogonalEdgeStyle;rounded=0;orthogonalLoop=1;jettySize=auto;html=1;" parent="1" source="wMJG4W6XiPVDL9AXUNTD-88" target="wMJG4W6XiPVDL9AXUNTD-91" edge="1">
          <mxGeometry relative="1" as="geometry" />
        </mxCell>
        <mxCell id="wMJG4W6XiPVDL9AXUNTD-88" value="更新&lt;br&gt;高精点云地图" style="ellipse;whiteSpace=wrap;html=1;" parent="1" vertex="1">
          <mxGeometry x="1475" y="140" width="100" height="80" as="geometry" />
        </mxCell>
        <mxCell id="wMJG4W6XiPVDL9AXUNTD-91" value="输出pcd" style="ellipse;whiteSpace=wrap;html=1;" parent="1" vertex="1">
          <mxGeometry x="1475" y="294" width="100" height="40" as="geometry" />
        </mxCell>
        <mxCell id="wMJG4W6XiPVDL9AXUNTD-98" value="" style="rounded=1;whiteSpace=wrap;html=1;dashed=1;strokeColor=#FF0000;" parent="1" vertex="1">
          <mxGeometry x="875" y="319" width="56" height="20" as="geometry" />
        </mxCell>
        <mxCell id="wMJG4W6XiPVDL9AXUNTD-99" value="红框内线程延后执行" style="text;html=1;strokeColor=none;fillColor=none;align=center;verticalAlign=middle;whiteSpace=wrap;rounded=0;" parent="1" vertex="1">
          <mxGeometry x="935" y="314" width="118" height="30" as="geometry" />
        </mxCell>
        <mxCell id="wMJG4W6XiPVDL9AXUNTD-103" value="里程计输出" style="ellipse;whiteSpace=wrap;html=1;" parent="1" vertex="1">
          <mxGeometry x="1108" y="294" width="78" height="30" as="geometry" />
        </mxCell>
        <mxCell id="wMJG4W6XiPVDL9AXUNTD-113" style="edgeStyle=orthogonalEdgeStyle;rounded=0;orthogonalLoop=1;jettySize=auto;html=1;" parent="1" source="wMJG4W6XiPVDL9AXUNTD-105" target="wMJG4W6XiPVDL9AXUNTD-111" edge="1">
          <mxGeometry relative="1" as="geometry" />
        </mxCell>
        <mxCell id="wMJG4W6XiPVDL9AXUNTD-105" value="GPS" style="rounded=0;whiteSpace=wrap;html=1;fillColor=#f0a30a;fontColor=#000000;strokeColor=#BD7000;" parent="1" vertex="1">
          <mxGeometry x="880" y="470" width="80" height="40" as="geometry" />
        </mxCell>
        <mxCell id="wMJG4W6XiPVDL9AXUNTD-109" style="edgeStyle=orthogonalEdgeStyle;rounded=0;orthogonalLoop=1;jettySize=auto;html=1;exitX=1;exitY=0.5;exitDx=0;exitDy=0;entryX=0;entryY=0.5;entryDx=0;entryDy=0;" parent="1" source="wMJG4W6XiPVDL9AXUNTD-106" target="wMJG4W6XiPVDL9AXUNTD-108" edge="1">
          <mxGeometry relative="1" as="geometry" />
        </mxCell>
        <mxCell id="wMJG4W6XiPVDL9AXUNTD-146" style="edgeStyle=orthogonalEdgeStyle;rounded=0;orthogonalLoop=1;jettySize=auto;html=1;entryX=0;entryY=0.5;entryDx=0;entryDy=0;strokeColor=#A50040;fillColor=#d80073;dashed=1;strokeWidth=3;" parent="1" source="wMJG4W6XiPVDL9AXUNTD-106" target="wMJG4W6XiPVDL9AXUNTD-117" edge="1">
          <mxGeometry relative="1" as="geometry" />
        </mxCell>
        <mxCell id="wMJG4W6XiPVDL9AXUNTD-106" value="LIDAR" style="rounded=0;whiteSpace=wrap;html=1;fillColor=#f0a30a;fontColor=#000000;strokeColor=#BD7000;" parent="1" vertex="1">
          <mxGeometry x="880" y="531" width="80" height="40" as="geometry" />
        </mxCell>
        <mxCell id="wMJG4W6XiPVDL9AXUNTD-112" style="edgeStyle=orthogonalEdgeStyle;rounded=0;orthogonalLoop=1;jettySize=auto;html=1;" parent="1" source="wMJG4W6XiPVDL9AXUNTD-107" target="wMJG4W6XiPVDL9AXUNTD-108" edge="1">
          <mxGeometry relative="1" as="geometry" />
        </mxCell>
        <mxCell id="wMJG4W6XiPVDL9AXUNTD-107" value="IMU" style="rounded=0;whiteSpace=wrap;html=1;fillColor=#f0a30a;fontColor=#000000;strokeColor=#BD7000;" parent="1" vertex="1">
          <mxGeometry x="880" y="590" width="80" height="40" as="geometry" />
        </mxCell>
        <mxCell id="wMJG4W6XiPVDL9AXUNTD-114" style="edgeStyle=orthogonalEdgeStyle;rounded=0;orthogonalLoop=1;jettySize=auto;html=1;exitX=1;exitY=0.5;exitDx=0;exitDy=0;entryX=0;entryY=0.5;entryDx=0;entryDy=0;" parent="1" source="wMJG4W6XiPVDL9AXUNTD-108" target="wMJG4W6XiPVDL9AXUNTD-111" edge="1">
          <mxGeometry relative="1" as="geometry" />
        </mxCell>
        <mxCell id="wMJG4W6XiPVDL9AXUNTD-108" value="点云配准" style="whiteSpace=wrap;html=1;movable=1;resizable=1;rotatable=1;deletable=1;editable=1;locked=0;connectable=1;" parent="1" vertex="1">
          <mxGeometry x="1101" y="531" width="73" height="40" as="geometry" />
        </mxCell>
        <mxCell id="wMJG4W6XiPVDL9AXUNTD-120" value="" style="edgeStyle=orthogonalEdgeStyle;rounded=0;orthogonalLoop=1;jettySize=auto;html=1;" parent="1" source="wMJG4W6XiPVDL9AXUNTD-111" target="wMJG4W6XiPVDL9AXUNTD-119" edge="1">
          <mxGeometry relative="1" as="geometry" />
        </mxCell>
        <mxCell id="wMJG4W6XiPVDL9AXUNTD-141" style="edgeStyle=orthogonalEdgeStyle;rounded=0;orthogonalLoop=1;jettySize=auto;html=1;entryX=0;entryY=0.5;entryDx=0;entryDy=0;" parent="1" source="wMJG4W6XiPVDL9AXUNTD-111" target="wMJG4W6XiPVDL9AXUNTD-143" edge="1">
          <mxGeometry relative="1" as="geometry">
            <mxPoint x="1492" y="490" as="targetPoint" />
          </mxGeometry>
        </mxCell>
        <mxCell id="wMJG4W6XiPVDL9AXUNTD-111" value="因子图" style="rounded=0;whiteSpace=wrap;html=1;" parent="1" vertex="1">
          <mxGeometry x="1255" y="531" width="67" height="40" as="geometry" />
        </mxCell>
        <mxCell id="wMJG4W6XiPVDL9AXUNTD-115" value="激光里程计" style="text;html=1;align=center;verticalAlign=middle;resizable=0;points=[];autosize=1;strokeColor=none;fillColor=none;" parent="1" vertex="1">
          <mxGeometry x="1174" y="529" width="80" height="30" as="geometry" />
        </mxCell>
        <mxCell id="wMJG4W6XiPVDL9AXUNTD-129" value="" style="edgeStyle=orthogonalEdgeStyle;rounded=0;orthogonalLoop=1;jettySize=auto;html=1;strokeColor=#A50040;fillColor=#d80073;dashed=1;strokeWidth=3;" parent="1" source="wMJG4W6XiPVDL9AXUNTD-116" target="wMJG4W6XiPVDL9AXUNTD-117" edge="1">
          <mxGeometry relative="1" as="geometry" />
        </mxCell>
        <mxCell id="wMJG4W6XiPVDL9AXUNTD-139" style="edgeStyle=orthogonalEdgeStyle;rounded=0;orthogonalLoop=1;jettySize=auto;html=1;entryX=0.5;entryY=1;entryDx=0;entryDy=0;" parent="1" source="wMJG4W6XiPVDL9AXUNTD-116" target="wMJG4W6XiPVDL9AXUNTD-131" edge="1">
          <mxGeometry relative="1" as="geometry">
            <Array as="points">
              <mxPoint x="940" y="740" />
              <mxPoint x="1339" y="740" />
            </Array>
          </mxGeometry>
        </mxCell>
        <mxCell id="wMJG4W6XiPVDL9AXUNTD-116" value="图商提供的高清地图" style="rounded=0;whiteSpace=wrap;html=1;fillColor=#6d8764;fontColor=#ffffff;strokeColor=#3A5431;" parent="1" vertex="1">
          <mxGeometry x="880" y="665" width="120" height="40" as="geometry" />
        </mxCell>
        <mxCell id="wMJG4W6XiPVDL9AXUNTD-133" style="edgeStyle=orthogonalEdgeStyle;rounded=0;orthogonalLoop=1;jettySize=auto;html=1;entryX=0;entryY=0.5;entryDx=0;entryDy=0;" parent="1" source="wMJG4W6XiPVDL9AXUNTD-117" target="wMJG4W6XiPVDL9AXUNTD-131" edge="1">
          <mxGeometry relative="1" as="geometry" />
        </mxCell>
        <mxCell id="wMJG4W6XiPVDL9AXUNTD-117" value="NDT匹配" style="rounded=0;whiteSpace=wrap;html=1;" parent="1" vertex="1">
          <mxGeometry x="1077" y="665" width="120" height="40" as="geometry" />
        </mxCell>
        <mxCell id="wMJG4W6XiPVDL9AXUNTD-137" style="edgeStyle=orthogonalEdgeStyle;rounded=0;orthogonalLoop=1;jettySize=auto;html=1;entryX=0.5;entryY=0;entryDx=0;entryDy=0;" parent="1" source="wMJG4W6XiPVDL9AXUNTD-119" target="wMJG4W6XiPVDL9AXUNTD-131" edge="1">
          <mxGeometry relative="1" as="geometry">
            <Array as="points">
              <mxPoint x="1527" y="600" />
              <mxPoint x="1339" y="600" />
            </Array>
          </mxGeometry>
        </mxCell>
        <mxCell id="wMJG4W6XiPVDL9AXUNTD-119" value="地图" style="rounded=0;whiteSpace=wrap;html=1;" parent="1" vertex="1">
          <mxGeometry x="1492" y="531" width="70" height="40" as="geometry" />
        </mxCell>
        <mxCell id="wMJG4W6XiPVDL9AXUNTD-145" value="" style="edgeStyle=orthogonalEdgeStyle;rounded=0;orthogonalLoop=1;jettySize=auto;html=1;" parent="1" source="wMJG4W6XiPVDL9AXUNTD-131" target="wMJG4W6XiPVDL9AXUNTD-144" edge="1">
          <mxGeometry relative="1" as="geometry" />
        </mxCell>
        <mxCell id="wMJG4W6XiPVDL9AXUNTD-131" value="地图更新与否取决于&lt;br&gt;NDT匹配结果" style="rhombus;whiteSpace=wrap;html=1;" parent="1" vertex="1">
          <mxGeometry x="1241" y="650" width="196" height="70" as="geometry" />
        </mxCell>
        <mxCell id="wMJG4W6XiPVDL9AXUNTD-143" value="里程计优化结果" style="ellipse;whiteSpace=wrap;html=1;fillColor=#b1ddf0;strokeColor=#10739e;" parent="1" vertex="1">
          <mxGeometry x="1467" y="450" width="120" height="50" as="geometry" />
        </mxCell>
        <mxCell id="wMJG4W6XiPVDL9AXUNTD-144" value="更新后的点云地图" style="ellipse;whiteSpace=wrap;html=1;fillColor=#b0e3e6;strokeColor=#0e8088;" parent="1" vertex="1">
          <mxGeometry x="1467" y="662.5" width="120" height="45" as="geometry" />
        </mxCell>
        <mxCell id="LvPCP1mISs3mfpXkRBbp-1" value="" style="rounded=0;whiteSpace=wrap;html=1;" parent="1" vertex="1">
          <mxGeometry x="835" y="820" width="780" height="340" as="geometry" />
        </mxCell>
        <mxCell id="LvPCP1mISs3mfpXkRBbp-33" style="edgeStyle=orthogonalEdgeStyle;rounded=0;orthogonalLoop=1;jettySize=auto;html=1;exitX=1;exitY=0.5;exitDx=0;exitDy=0;entryX=0.5;entryY=0;entryDx=0;entryDy=0;" parent="1" source="LvPCP1mISs3mfpXkRBbp-3" target="LvPCP1mISs3mfpXkRBbp-10" edge="1">
          <mxGeometry relative="1" as="geometry" />
        </mxCell>
        <mxCell id="LvPCP1mISs3mfpXkRBbp-3" value="&lt;font style=&quot;font-size: 16px;&quot;&gt;图商提供高精点云pcd地图&lt;/font&gt;" style="rounded=0;whiteSpace=wrap;html=1;strokeColor=#82b366;fillColor=#d5e8d4;" parent="1" vertex="1">
          <mxGeometry x="865" y="960" width="170" height="60" as="geometry" />
        </mxCell>
        <mxCell id="LvPCP1mISs3mfpXkRBbp-4" style="edgeStyle=orthogonalEdgeStyle;rounded=0;orthogonalLoop=1;jettySize=auto;html=1;exitX=1;exitY=0.5;exitDx=0;exitDy=0;entryX=0;entryY=0.5;entryDx=0;entryDy=0;" parent="1" source="LvPCP1mISs3mfpXkRBbp-5" target="LvPCP1mISs3mfpXkRBbp-10" edge="1">
          <mxGeometry relative="1" as="geometry" />
        </mxCell>
        <mxCell id="LvPCP1mISs3mfpXkRBbp-5" value="实时点云采集" style="rounded=0;whiteSpace=wrap;html=1;fillColor=#f5f5f5;fontColor=#333333;strokeColor=#666666;" parent="1" vertex="1">
          <mxGeometry x="875" y="1044" width="90" height="40" as="geometry" />
        </mxCell>
        <mxCell id="LvPCP1mISs3mfpXkRBbp-31" value="" style="edgeStyle=orthogonalEdgeStyle;rounded=0;orthogonalLoop=1;jettySize=auto;html=1;" parent="1" source="LvPCP1mISs3mfpXkRBbp-10" target="LvPCP1mISs3mfpXkRBbp-30" edge="1">
          <mxGeometry relative="1" as="geometry" />
        </mxCell>
        <mxCell id="LvPCP1mISs3mfpXkRBbp-10" value="激光点云匹配" style="rounded=0;whiteSpace=wrap;html=1;" parent="1" vertex="1">
          <mxGeometry x="1065" y="1044" width="100" height="40" as="geometry" />
        </mxCell>
        <mxCell id="LvPCP1mISs3mfpXkRBbp-14" value="加载" style="text;html=1;align=center;verticalAlign=middle;resizable=0;points=[];autosize=1;strokeColor=none;fillColor=none;" parent="1" vertex="1">
          <mxGeometry x="1045" y="960" width="50" height="30" as="geometry" />
        </mxCell>
        <mxCell id="LvPCP1mISs3mfpXkRBbp-34" value="" style="edgeStyle=orthogonalEdgeStyle;rounded=0;orthogonalLoop=1;jettySize=auto;html=1;" parent="1" source="LvPCP1mISs3mfpXkRBbp-30" target="LvPCP1mISs3mfpXkRBbp-32" edge="1">
          <mxGeometry relative="1" as="geometry" />
        </mxCell>
        <mxCell id="LvPCP1mISs3mfpXkRBbp-30" value="点云匹配结果" style="ellipse;whiteSpace=wrap;html=1;fillColor=#f8cecc;strokeColor=#b85450;" parent="1" vertex="1">
          <mxGeometry x="1225" y="1041" width="120" height="46" as="geometry" />
        </mxCell>
        <mxCell id="LvPCP1mISs3mfpXkRBbp-32" value="融合定位" style="ellipse;whiteSpace=wrap;html=1;" parent="1" vertex="1">
          <mxGeometry x="1415" y="1044" width="120" height="40" as="geometry" />
        </mxCell>
      </root>
    </mxGraphModel>
  </diagram>
</mxfile>
